<svg width="36" height="36" viewBox="0 0 36 36" fill="none" xmlns="http://www.w3.org/2000/svg">
<rect width="36" height="36" rx="18" fill="white" fill-opacity="0.2"/>
<g clip-path="url(#clip0_0_326)">
<path d="M8.19843 27.9486C8.0862 27.8863 8.0019 27.7447 8 27.6151C7.99924 27.5631 8.35448 26.5975 8.78942 25.4693L9.58022 23.4181L9.45239 23.1978C9.21725 22.7925 8.74855 21.8084 8.60239 21.4131C8.41625 20.9096 8.18261 19.9771 8.09284 19.3794C8.0057 18.7991 7.99215 17.2963 8.06921 16.759C8.40129 14.4435 9.35944 12.488 10.9331 10.914C12.5052 9.34155 14.4855 8.36813 16.7573 8.0511C17.2455 7.98297 18.7715 7.98297 19.2598 8.0511C22.1853 8.45935 24.6729 9.98986 26.2938 12.3787C27.1526 13.6444 27.6759 15.0037 27.9275 16.6221C28.0151 17.1862 28.0258 18.7247 27.9459 19.262C27.6058 21.5467 26.6179 23.5459 25.0673 25.0875C22.6493 27.4914 19.2087 28.4905 15.8384 27.7674C14.9845 27.5842 13.7034 27.0757 12.9058 26.6034L12.7103 26.4876L10.5988 27.2436C9.43754 27.6594 8.44339 27.9998 8.38963 28C8.33586 28.0002 8.24982 27.977 8.19843 27.9486Z" fill="white" fill-opacity="0.5"/>
<path d="M22.3283 22.312C22.0444 22.5927 21.7538 22.7718 21.3645 22.9061C21.0005 23.0316 20.3499 23.065 19.9633 22.9779C19.0625 22.7749 17.6831 22.0596 16.5029 21.1834C15.3876 20.3554 14.4274 19.152 13.628 17.5804C13.0077 16.3609 12.8431 15.5831 13.0413 14.8079C13.2593 13.9556 13.9313 13.252 14.7602 13.0083C14.9107 12.9641 15.1341 12.9459 15.5272 12.9459C16.0326 12.9459 16.0911 12.9532 16.1869 13.0286C16.2534 13.0809 16.467 13.4581 16.7684 14.0552L17.2447 14.9992L17.2434 15.3316C17.2422 15.6288 17.2275 15.6951 17.1043 15.9574C17.0286 16.1188 16.8502 16.395 16.708 16.5713L16.4493 16.8917L16.6328 17.2576C17.1098 18.209 17.8135 18.9042 18.7874 19.3862L19.1171 19.5494L19.3412 19.3471C19.8142 18.9201 20.2851 18.7149 20.7258 18.7437C20.9825 18.7605 21.058 18.7909 21.938 19.2322C22.4541 19.4911 22.9116 19.7419 22.9546 19.7896C23.0236 19.8661 23.0343 19.9418 23.0454 20.434C23.057 20.9516 23.0505 21.0138 22.9545 21.2998C22.8192 21.7029 22.6219 22.0218 22.3283 22.312Z" fill="white"/>
</g>
<defs>
<clipPath id="clip0_0_326">
<rect width="20" height="20" fill="white" transform="translate(8 8)"/>
</clipPath>
</defs>
</svg>
