<svg width="36" height="36" viewBox="0 0 36 36" fill="none" xmlns="http://www.w3.org/2000/svg">
<rect width="36" height="36" rx="18" fill="white" fill-opacity="0.2"/>
<g clip-path="url(#clip0_0_319)">
<path d="M18 28C23.5228 28 28 23.5228 28 18C28 12.4772 23.5228 8 18 8C12.4772 8 8 12.4772 8 18C8 23.5228 12.4772 28 18 28Z" fill="white" fill-opacity="0.5"/>
<path fill-rule="evenodd" clip-rule="evenodd" d="M12.5259 17.8945C15.4411 16.6244 17.385 15.787 18.3576 15.3825C21.1347 14.2274 21.7118 14.0267 22.0879 14.0201C22.1706 14.0186 22.3556 14.0391 22.4754 14.1364C22.5766 14.2184 22.6044 14.3293 22.6177 14.4072C22.6311 14.485 22.6477 14.6623 22.6345 14.8008C22.484 16.3821 21.8328 20.2193 21.5015 21.9903C21.3613 22.7397 21.0853 22.991 20.8181 23.0156C20.2374 23.069 19.7964 22.6318 19.234 22.2631C18.3538 21.6861 17.8566 21.327 17.0023 20.764C16.015 20.1134 16.655 19.7558 17.2177 19.1714C17.3649 19.0184 19.9236 16.6911 19.9731 16.48C19.9793 16.4536 19.9851 16.3552 19.9266 16.3032C19.8681 16.2513 19.7818 16.269 19.7195 16.2832C19.6313 16.3032 18.2253 17.2325 15.5015 19.0711C15.1024 19.3452 14.7409 19.4787 14.417 19.4717C14.06 19.464 13.3732 19.2698 12.8626 19.1039C12.2363 18.9003 11.7386 18.7927 11.7819 18.4469C11.8045 18.2669 12.0525 18.0827 12.5259 17.8945Z" fill="white"/>
</g>
<defs>
<clipPath id="clip0_0_319">
<rect width="20" height="20" fill="white" transform="translate(8 8)"/>
</clipPath>
</defs>
</svg>
